<svg id="Layer_1" data-name="Layer 1" xmlns="http://www.w3.org/2000/svg" viewBox="0 0 342.29 203.07"><defs><style>.cls-1{fill:#373e66;}</style></defs><title>Artboard 1</title><path class="cls-1" d="M96.8,81.59a7.62,7.62,0,1,1-6.9-8.28,7.6,7.6,0,0,1,6.9,8.28m1.58-10.11h0C86.79,59.78,63.47,57.11,18.15,76.69c-.2.08-.85.38-.86.4a4.25,4.25,0,0,0-2,3.57,4.12,4.12,0,0,0,4.22,4.23,8.36,8.36,0,0,0,2-.55C28.19,81.9,61,73,78.23,88.55c.56.46,1.09.93,1.61,1.43s1,1,1.42,1.6c15.55,17.28,6.57,50.06,4.12,56.71a7.59,7.59,0,0,0-.56,2A4.12,4.12,0,0,0,89,154.55a4.21,4.21,0,0,0,3.57-2,7.18,7.18,0,0,0,.4-.85c19.66-45.29,17-68.62,5.37-80.21"/><path class="cls-1" d="M120.89,59.56a9.9,9.9,0,1,1-9-10.74,9.92,9.92,0,0,1,9,10.74"/><path class="cls-1" d="M75.79,100a5.19,5.19,0,1,1-4.71-5.63A5.18,5.18,0,0,1,75.79,100"/><path class="cls-1" d="M61.19,113.1a3.9,3.9,0,1,1-3.53-4.22,3.91,3.91,0,0,1,3.53,4.22"/><path class="cls-1" d="M256.11,72h-9.32a2.52,2.52,0,0,0-2.33,2.67V105.9H212.22V74.69A2.52,2.52,0,0,0,209.89,72h-9.42a2.59,2.59,0,0,0-2.33,2.67v79a2.59,2.59,0,0,0,2.33,2.67h9.42a2.52,2.52,0,0,0,2.33-2.67V121.14h32.24v32.53a2.52,2.52,0,0,0,2.33,2.67h9.32a2.59,2.59,0,0,0,2.33-2.67v-79A2.59,2.59,0,0,0,256.11,72Z"/><path class="cls-1" d="M188.24,72H147a2.52,2.52,0,0,0-2.33,2.67v79a2.52,2.52,0,0,0,2.33,2.67h9.32a2.59,2.59,0,0,0,2.33-2.67V121.15h24.63a2.59,2.59,0,0,0,2.33-2.67V108.7a2.59,2.59,0,0,0-2.33-2.67H158.64V87.15h29.6a2.52,2.52,0,0,0,2.32-2.67V74.69A2.52,2.52,0,0,0,188.24,72Z"/><path class="cls-1" d="M286,72h-9.43a2.59,2.59,0,0,0-2.33,2.67v79a2.59,2.59,0,0,0,2.33,2.67H286a2.59,2.59,0,0,0,2.33-2.67v-79A2.59,2.59,0,0,0,286,72Z"/></svg>